<mxfile host="app.diagrams.net" modified="2022-01-07T05:00:40.244Z" agent="5.0 (Windows NT 10.0; Win64; x64) AppleWebKit/537.36 (KHTML, like Gecko) Chrome/94.0.4606.113 Safari/537.36" etag="eErSDjCLL-XPtw7kJ377" version="16.2.2" type="github">
  <diagram id="lh8g20T3pPVSp0PFc99V" name="Page-1">
    <mxGraphModel dx="1042" dy="547" grid="1" gridSize="10" guides="1" tooltips="1" connect="1" arrows="1" fold="1" page="1" pageScale="1" pageWidth="827" pageHeight="1169" math="0" shadow="0">
      <root>
        <mxCell id="0" />
        <mxCell id="1" parent="0" />
        <mxCell id="Meal1JP8hrc1P90qUYBF-5" style="edgeStyle=orthogonalEdgeStyle;rounded=0;orthogonalLoop=1;jettySize=auto;html=1;exitX=0.5;exitY=1;exitDx=0;exitDy=0;entryX=0.5;entryY=0;entryDx=0;entryDy=0;" edge="1" parent="1" source="Meal1JP8hrc1P90qUYBF-1" target="Meal1JP8hrc1P90qUYBF-2">
          <mxGeometry relative="1" as="geometry" />
        </mxCell>
        <mxCell id="Meal1JP8hrc1P90qUYBF-1" value="" style="ellipse;whiteSpace=wrap;html=1;aspect=fixed;" vertex="1" parent="1">
          <mxGeometry x="40" y="40" width="80" height="80" as="geometry" />
        </mxCell>
        <mxCell id="Meal1JP8hrc1P90qUYBF-6" style="edgeStyle=orthogonalEdgeStyle;rounded=0;orthogonalLoop=1;jettySize=auto;html=1;" edge="1" parent="1" source="Meal1JP8hrc1P90qUYBF-2" target="Meal1JP8hrc1P90qUYBF-3">
          <mxGeometry relative="1" as="geometry" />
        </mxCell>
        <mxCell id="Meal1JP8hrc1P90qUYBF-10" style="edgeStyle=orthogonalEdgeStyle;rounded=0;orthogonalLoop=1;jettySize=auto;html=1;exitX=1;exitY=0.5;exitDx=0;exitDy=0;entryX=0.5;entryY=0;entryDx=0;entryDy=0;" edge="1" parent="1" source="Meal1JP8hrc1P90qUYBF-2" target="Meal1JP8hrc1P90qUYBF-9">
          <mxGeometry relative="1" as="geometry" />
        </mxCell>
        <mxCell id="Meal1JP8hrc1P90qUYBF-2" value="" style="rhombus;whiteSpace=wrap;html=1;" vertex="1" parent="1">
          <mxGeometry x="40" y="160" width="80" height="80" as="geometry" />
        </mxCell>
        <mxCell id="Meal1JP8hrc1P90qUYBF-7" style="edgeStyle=orthogonalEdgeStyle;rounded=0;orthogonalLoop=1;jettySize=auto;html=1;entryX=0.5;entryY=0;entryDx=0;entryDy=0;" edge="1" parent="1" source="Meal1JP8hrc1P90qUYBF-3" target="Meal1JP8hrc1P90qUYBF-4">
          <mxGeometry relative="1" as="geometry" />
        </mxCell>
        <mxCell id="Meal1JP8hrc1P90qUYBF-3" value="" style="rhombus;whiteSpace=wrap;html=1;" vertex="1" parent="1">
          <mxGeometry x="40" y="280" width="80" height="80" as="geometry" />
        </mxCell>
        <mxCell id="Meal1JP8hrc1P90qUYBF-4" value="" style="rhombus;whiteSpace=wrap;html=1;" vertex="1" parent="1">
          <mxGeometry x="200" y="400" width="80" height="80" as="geometry" />
        </mxCell>
        <mxCell id="Meal1JP8hrc1P90qUYBF-8" value="" style="rhombus;whiteSpace=wrap;html=1;" vertex="1" parent="1">
          <mxGeometry x="440" y="280" width="80" height="80" as="geometry" />
        </mxCell>
        <mxCell id="Meal1JP8hrc1P90qUYBF-11" style="edgeStyle=orthogonalEdgeStyle;rounded=0;orthogonalLoop=1;jettySize=auto;html=1;" edge="1" parent="1" source="Meal1JP8hrc1P90qUYBF-9" target="Meal1JP8hrc1P90qUYBF-8">
          <mxGeometry relative="1" as="geometry" />
        </mxCell>
        <mxCell id="Meal1JP8hrc1P90qUYBF-15" style="edgeStyle=orthogonalEdgeStyle;rounded=0;orthogonalLoop=1;jettySize=auto;html=1;" edge="1" parent="1" source="Meal1JP8hrc1P90qUYBF-9" target="Meal1JP8hrc1P90qUYBF-14">
          <mxGeometry relative="1" as="geometry" />
        </mxCell>
        <mxCell id="Meal1JP8hrc1P90qUYBF-9" value="" style="rhombus;whiteSpace=wrap;html=1;" vertex="1" parent="1">
          <mxGeometry x="640" y="280" width="80" height="80" as="geometry" />
        </mxCell>
        <mxCell id="Meal1JP8hrc1P90qUYBF-12" value="" style="rounded=0;whiteSpace=wrap;html=1;" vertex="1" parent="1">
          <mxGeometry y="560" width="160" height="40" as="geometry" />
        </mxCell>
        <mxCell id="Meal1JP8hrc1P90qUYBF-13" value="" style="rounded=0;whiteSpace=wrap;html=1;" vertex="1" parent="1">
          <mxGeometry x="180" y="560" width="620" height="40" as="geometry" />
        </mxCell>
        <mxCell id="Meal1JP8hrc1P90qUYBF-14" value="" style="rhombus;whiteSpace=wrap;html=1;" vertex="1" parent="1">
          <mxGeometry x="640" y="400" width="80" height="80" as="geometry" />
        </mxCell>
      </root>
    </mxGraphModel>
  </diagram>
</mxfile>
